<svg xmlns="http://www.w3.org/2000/svg" viewBox="0 0 660 220" width="660" height="220" font-family="ui-monospace, 'SF Mono', Menlo, monospace">
  <defs>
    <style>
      .box-border { stroke: #ddd; stroke-width: 1; fill: #f6f6f6; }
      .box-title { fill: #292929; font-size: 9px; font-weight: 600; text-anchor: middle; }
      .box-text { fill: #999; font-size: 8.5px; text-anchor: middle; }
      .arrow { stroke: #292929; stroke-width: 1; fill: none; marker-end: url(#arrowhead); }
      .arrow-label { fill: #292929; font-size: 7.5px; text-anchor: middle; }
      .caption { fill: #999; font-size: 8.5px; }
      .column-label { fill: #bbb; font-size: 7.5px; text-anchor: middle; letter-spacing: 0.5px; }
    </style>
    <marker id="arrowhead" markerWidth="6" markerHeight="5" refX="5" refY="2.5" orient="auto">
      <polygon points="0 0, 6 2.5, 0 5" fill="#292929"/>
    </marker>
  </defs>

  <!-- White background -->
  <rect x="0" y="0" width="660" height="220" rx="6" fill="#fff"/>

  <!-- Column labels -->
  <text x="115" y="24" class="column-label">YOUR MAC</text>
  <text x="330" y="24" class="column-label">YOUR PRIVATE SERVER</text>
  <text x="545" y="24" class="column-label">REALTIME MODEL</text>

  <!-- Box 1: Your Mac -->
  <rect x="25" y="36" width="180" height="100" rx="4" class="box-border"/>
  <text x="115" y="56" class="box-title">Unramble</text>
  <text x="115" y="74" class="box-text">capture audio</text>
  <text x="115" y="88" class="box-text">read app context</text>
  <text x="115" y="112" class="box-text">inject text at cursor</text>

  <!-- Box 2: Your Private Server -->
  <rect x="240" y="36" width="180" height="100" rx="4" class="box-border"/>
  <text x="330" y="56" class="box-title">Unramble Service</text>
  <text x="330" y="74" class="box-text">stream to realtime model</text>
  <text x="330" y="102" class="box-text">polish transcript</text>
  <text x="330" y="116" class="box-text">or skip if already clean</text>

  <!-- Box 3: Realtime Model -->
  <rect x="455" y="36" width="180" height="100" rx="4" class="box-border"/>
  <text x="545" y="56" class="box-title">Realtime Speech to Text</text>
  <text x="545" y="74" class="box-text">transcribe in real time</text>
  <text x="545" y="88" class="box-text">while you speak</text>

  <!-- Double forward arrows: Mac to Server (two parallel WebSocket paths) -->
  <line x1="205" y1="63" x2="238" y2="63" class="arrow"/>
  <line x1="205" y1="71" x2="238" y2="71" class="arrow"/>
  <text x="222" y="57" class="arrow-label">audio</text>

  <!-- Single forward arrow: Server to Model -->
  <line x1="420" y1="66" x2="453" y2="66" class="arrow"/>
  <text x="437" y="60" class="arrow-label">audio</text>

  <!-- Return arrow: Model to Server -->
  <line x1="453" y1="100" x2="420" y2="100" class="arrow"/>
  <text x="437" y="115" class="arrow-label">transcript</text>

  <!-- Return arrow: Server to Mac -->
  <line x1="238" y1="100" x2="205" y2="100" class="arrow"/>
  <text x="222" y="115" class="arrow-label">polished text</text>

  <!-- Captions -->
  <text x="25" y="163" class="caption">Audio streams over a persistent WebSocket while you hold the hotkey.</text>
  <text x="25" y="176" class="caption">By the time you release the key, the transcript is already done.</text>

  <text x="25" y="196" class="caption">Two WebSocket connections race each other. If both fail, an HTTP fallback catches it.</text>
  <text x="25" y="209" class="caption">Whichever path finishes first wins.</text>
</svg>
